<!-- <svg xmlns="http://www.w3.org/2000/svg" viewBox="0 0 100 100" width="20" height="20">
  

  <defs>
    <symbol id="groove">
      <circle cx="50" cy="50" r="50" fill="hsl(265 100% 15%)"/>
      <circle cx="50" cy="50" r="45" stroke="hsl(265 100% 12.5%)" fill="none" stroke-width="0.5"/>
      <circle cx="50" cy="50" r="40" stroke="hsl(265 100% 10%)" fill="none" stroke-width="0.5"/>
      <circle cx="50" cy="50" r="35" stroke="hsl(265 100% 12.5%)" fill="none" stroke-width="0.5"/>
      <circle cx="50" cy="50" r="30" stroke="hsl(265 100% 10%)" fill="none" stroke-width="0.5"/>
      <circle cx="50" cy="50" r="25" stroke="hsl(265 100% 12.5%)" fill="none" stroke-width="0.5"/>
    </symbol>
  </defs>
  
  <use href="#groove"/>
  <circle cx="50" cy="50" r="20" fill="hsl(175 50% 95%)"/>
  <circle cx="50" cy="50" r="2.5"/>
</svg> -->

<!-- <svg width="1000" height="1000" viewBox="0 0 1000 1000" fill="none" xmlns="http://www.w3.org/2000/svg">
  <path d="M995 500C995 773.381 773.381 995 500 995C226.619 995 5 773.381 5 500C5 226.619 226.619 5 500 5C773.381 5 995 226.619 995 500ZM500 530C516.569 530 530 516.569 530 500C530 483.431 516.569 470 500 470C483.431 470 470 483.431 470 500C470 516.569 483.431 530 500 530Z" fill="#231339" stroke="#1F1132" stroke-width="10"/>
  <path d="M749 500C749 637.519 637.519 749 500 749C362.481 749 251 637.519 251 500C251 362.481 362.481 251 500 251C637.519 251 749 362.481 749 500ZM500 751C638.623 751 751 638.623 751 500C751 361.377 638.623 249 500 249C361.377 249 249 361.377 249 500C249 638.623 361.377 751 500 751ZM524 500C524 513.255 513.255 524 500 524C486.745 524 476 513.255 476 500C476 486.745 486.745 476 500 476C513.255 476 524 486.745 524 500ZM500 526C514.359 526 526 514.359 526 500C526 485.641 514.359 474 500 474C485.641 474 474 485.641 474 500C474 514.359 485.641 526 500 526ZM799 500C799 665.133 665.133 799 500 799C334.867 799 201 665.133 201 500C201 334.867 334.867 201 500 201C665.133 201 799 334.867 799 500ZM500 801C666.238 801 801 666.238 801 500C801 333.762 666.238 199 500 199C333.762 199 199 333.762 199 500C199 666.238 333.762 801 500 801ZM849 500C849 692.747 692.747 849 500 849C307.253 849 151 692.747 151 500C151 307.253 307.253 151 500 151C692.747 151 849 307.253 849 500ZM500 851C693.852 851 851 693.852 851 500C851 306.148 693.852 149 500 149C306.148 149 149 306.148 149 500C149 693.852 306.148 851 500 851ZM899 500C899 720.362 720.362 899 500 899C279.638 899 101 720.362 101 500C101 279.638 279.638 101 500 101C720.362 101 899 279.638 899 500ZM500 901C721.466 901 901 721.466 901 500C901 278.534 721.466 99 500 99C278.534 99 99 278.534 99 500C99 721.466 278.534 901 500 901ZM949 500C949 747.976 747.976 949 500 949C252.024 949 51 747.976 51 500C51 252.024 252.024 51 500 51C747.976 51 949 252.024 949 500Z" stroke="#1C0F2E" stroke-width="2"/>
  <path fill-rule="evenodd" clip-rule="evenodd" d="M500 675C596.65 675 675 596.65 675 500C675 403.35 596.65 325 500 325C403.35 325 325 403.35 325 500C325 596.65 403.35 675 500 675ZM500 525C513.807 525 525 513.807 525 500C525 486.193 513.807 475 500 475C486.193 475 475 486.193 475 500C475 513.807 486.193 525 500 525Z" fill="#EFF5F5"/>
</svg> -->

<svg width="100" height="100" viewBox="0 0 1000 1000" fill="none" xmlns="http://www.w3.org/2000/svg">
  <mask id="path-1-inside-1_43_419" fill="white">
    <path fill-rule="evenodd" clip-rule="evenodd" d="M500 1000C776.142 1000 1000 776.142 1000 500C1000 223.858 776.142 0 500 0C223.858 0 0 223.858 0 500C0 776.142 223.858 1000 500 1000ZM500 525C513.807 525 525 513.807 525 500C525 486.193 513.807 475 500 475C486.193 475 475 486.193 475 500C475 513.807 486.193 525 500 525Z"/>
  </mask>
  <path fill-rule="evenodd" clip-rule="evenodd" d="M500 1000C776.142 1000 1000 776.142 1000 500C1000 223.858 776.142 0 500 0C223.858 0 0 223.858 0 500C0 776.142 223.858 1000 500 1000ZM500 525C513.807 525 525 513.807 525 500C525 486.193 513.807 475 500 475C486.193 475 475 486.193 475 500C475 513.807 486.193 525 500 525Z" fill="#231339"/>
  <path d="M990 500C990 770.62 770.62 990 500 990V1010C781.665 1010 1010 781.665 1010 500H990ZM500 10C770.62 10 990 229.38 990 500H1010C1010 218.335 781.665 -10 500 -10V10ZM10 500C10 229.38 229.38 10 500 10V-10C218.335 -10 -10 218.335 -10 500H10ZM500 990C229.38 990 10 770.62 10 500H-10C-10 781.665 218.335 1010 500 1010V990ZM515 500C515 508.284 508.284 515 500 515V535C519.33 535 535 519.33 535 500H515ZM500 485C508.284 485 515 491.716 515 500H535C535 480.67 519.33 465 500 465V485ZM485 500C485 491.716 491.716 485 500 485V465C480.67 465 465 480.67 465 500H485ZM500 515C491.716 515 485 508.284 485 500H465C465 519.33 480.67 535 500 535V515Z" fill="#1F1132" mask="url(#path-1-inside-1_43_419)"/>
  <path fill-rule="evenodd" clip-rule="evenodd" d="M500 948C747.424 948 948 747.424 948 500C948 252.576 747.424 52 500 52C252.576 52 52 252.576 52 500C52 747.424 252.576 948 500 948ZM500 950C748.528 950 950 748.528 950 500C950 251.472 748.528 50 500 50C251.472 50 50 251.472 50 500C50 748.528 251.472 950 500 950ZM895 500C895 718.152 718.152 895 500 895C281.848 895 105 718.152 105 500C105 281.848 281.848 105 500 105C718.152 105 895 281.848 895 500ZM900 500C900 720.914 720.914 900 500 900C279.086 900 100 720.914 100 500C100 279.086 279.086 100 500 100C720.914 100 900 279.086 900 500ZM500 848C692.195 848 848 692.195 848 500C848 307.805 692.195 152 500 152C307.805 152 152 307.805 152 500C152 692.195 307.805 848 500 848ZM500 850C693.3 850 850 693.3 850 500C850 306.7 693.3 150 500 150C306.7 150 150 306.7 150 500C150 693.3 306.7 850 500 850ZM500 795C662.924 795 795 662.924 795 500C795 337.076 662.924 205 500 205C337.076 205 205 337.076 205 500C205 662.924 337.076 795 500 795ZM500 800C665.685 800 800 665.685 800 500C800 334.315 665.685 200 500 200C334.315 200 200 334.315 200 500C200 665.685 334.315 800 500 800ZM750 500C750 638.071 638.071 750 500 750C361.929 750 250 638.071 250 500C250 361.929 361.929 250 500 250C638.071 250 750 361.929 750 500ZM525 500C525 513.807 513.807 525 500 525C486.193 525 475 513.807 475 500C475 486.193 486.193 475 500 475C513.807 475 525 486.193 525 500Z" fill="#1C0F2E"/>
  <path fill-rule="evenodd" clip-rule="evenodd" d="M500 675C596.65 675 675 596.65 675 500C675 403.35 596.65 325 500 325C403.35 325 325 403.35 325 500C325 596.65 403.35 675 500 675ZM500 525C513.807 525 525 513.807 525 500C525 486.193 513.807 475 500 475C486.193 475 475 486.193 475 500C475 513.807 486.193 525 500 525Z" fill="#EFF5F5"/>
</svg>
